<svg width="100" height="83" viewBox="0 0 100 83" fill="none" xmlns="http://www.w3.org/2000/svg">
<path d="M15 59.5H58C60.4853 59.5 62.5 61.5147 62.5 64V78C62.5 80.4853 60.4853 82.5 58 82.5H15C8.64873 82.5 3.5 77.3513 3.5 71C3.5 64.6487 8.64873 59.5 15 59.5Z" fill="#C9C1D5" stroke="black"/>
<circle cx="14.1103" cy="71" r="11.5" fill="#C9C1D5" stroke="black"/>
<path d="M14.0763 75.5262C13.5141 75.5433 13.0099 75.4619 12.5637 75.2822C12.1203 75.1024 11.764 74.8447 11.4948 74.509C11.2284 74.1703 11.0766 73.7727 11.0395 73.3163L12.1129 73.2836C12.1444 73.5641 12.2486 73.8039 12.4254 74.0032C12.6021 74.1996 12.8299 74.349 13.1089 74.4514C13.3878 74.5537 13.6948 74.5998 14.0298 74.5897C14.4047 74.5783 14.7349 74.5029 15.0204 74.3634C15.3059 74.224 15.5274 74.0354 15.6847 73.7975C15.8421 73.5597 15.916 73.2874 15.9063 72.9808C15.8963 72.6599 15.8079 72.3798 15.6412 72.1404C15.4744 71.8982 15.2355 71.7122 14.9244 71.5824C14.6134 71.4526 14.2363 71.3944 13.7934 71.4079L13.0948 71.4291L13.0654 70.4921L13.7639 70.4708C14.1103 70.4603 14.4122 70.3886 14.6695 70.2557C14.9297 70.1228 15.13 69.9404 15.2705 69.7088C15.4139 69.4771 15.4807 69.2079 15.4711 68.9012C15.4618 68.6059 15.3884 68.3509 15.2509 68.1362C15.1134 67.9216 14.9235 67.7568 14.6811 67.6419C14.4416 67.527 14.1614 67.4744 13.8405 67.4842C13.5395 67.4933 13.2573 67.5573 12.9939 67.6762C12.7332 67.7921 12.5223 67.9563 12.3613 68.1686C12.2002 68.3782 12.1171 68.628 12.112 68.918L11.0898 68.9491C11.0924 68.4914 11.2175 68.0869 11.4651 67.7354C11.7127 67.3812 12.0421 67.1011 12.4534 66.8954C12.8676 66.6895 13.326 66.5789 13.8286 66.5637C14.3682 66.5473 14.8344 66.6425 15.2275 66.8494C15.6205 67.0535 15.9262 67.3298 16.1446 67.6785C16.3631 68.0271 16.4788 68.4073 16.4917 68.819C16.5072 69.3103 16.3912 69.733 16.1436 70.0873C15.899 70.4415 15.5587 70.692 15.1227 70.8388L15.1249 70.907C15.6786 70.9811 16.1162 71.2023 16.4376 71.5705C16.7589 71.9359 16.9282 72.3955 16.9456 72.9492C16.9605 73.4234 16.8447 73.8532 16.5982 74.2387C16.3544 74.6213 16.0144 74.9272 15.5783 75.1565C15.1421 75.3858 14.6414 75.509 14.0763 75.5262Z" fill="black"/>
<path d="M15 28.5H78C80.4853 28.5 82.5 30.5147 82.5 33V47C82.5 49.4853 80.4853 51.5 78 51.5H15C8.64872 51.5 3.5 46.3513 3.5 40C3.5 33.6487 8.64873 28.5 15 28.5Z" fill="#29C9E7" stroke="black"/>
<circle cx="14.1103" cy="40" r="11.5" fill="#29C9E7" stroke="black"/>
<path d="M11.3125 44.4908L11.2884 43.7241L14.0686 40.4848C14.3949 40.1054 14.6631 39.776 14.8732 39.4968C15.0832 39.2147 15.2369 38.9514 15.3344 38.7069C15.4346 38.4594 15.4806 38.2022 15.4722 37.9353C15.4625 37.6286 15.3803 37.3654 15.2256 37.1455C15.0738 36.9256 14.8695 36.7584 14.613 36.644C14.3564 36.5296 14.0705 36.4772 13.7553 36.4868C13.4203 36.4969 13.13 36.5754 12.8845 36.7221C12.6417 36.8659 12.4561 37.0634 12.3275 37.3146C12.2018 37.5657 12.1442 37.8574 12.1547 38.1896L11.1494 38.2201C11.1334 37.709 11.2371 37.2568 11.4606 36.8635C11.6842 36.4701 11.9956 36.1594 12.3949 35.9312C12.797 35.703 13.2522 35.5812 13.7605 35.5657C14.2716 35.5502 14.7279 35.6443 15.1294 35.8481C15.5309 36.0519 15.8496 36.3336 16.0854 36.6931C16.3213 37.0525 16.4462 37.4566 16.4603 37.9052C16.4704 38.2261 16.4221 38.5416 16.3153 38.8518C16.2113 39.1591 16.0232 39.5045 15.751 39.8879C15.4816 40.2684 15.1054 40.7346 14.6225 41.2865L12.7291 43.4416L12.7312 43.5097L16.7862 43.3865L16.8157 44.3235L11.3125 44.4908Z" fill="black"/>
<path d="M14.9126 0.5H95C97.4853 0.5 99.5 2.51472 99.5 5V19C99.5 21.4853 97.4853 23.5 95 23.5H14.9126C8.56134 23.5 3.41262 18.3513 3.41262 12C3.41262 5.64873 8.56135 0.5 14.9126 0.5Z" fill="#C6EAA7" stroke="black"/>
<path d="M24.8498 12C24.8498 18.3653 19.8437 23.5 13.6993 23.5C7.55492 23.5 2.54885 18.3653 2.54885 12C2.54885 5.63469 7.55492 0.5 13.6993 0.5C19.8437 0.5 24.8498 5.63469 24.8498 12Z" fill="#C6EAA7" stroke="black"/>
<path d="M14.5474 7.64804L14.8137 16.3712L13.7574 16.4043L13.5249 8.78855L13.4737 8.79015L11.3873 10.2709L11.3545 9.19756L13.4911 7.68111L14.5474 7.64804Z" fill="black"/>
</svg>
